<svg xmlns="http://www.w3.org/2000/svg" viewBox="0 0 877.34 482.58"><defs><style>.cls-1{stroke:#000;stroke-miterlimit:10;stroke-width:2px;}</style></defs><g id="Ebene_2" data-name="Ebene 2"><g id="Ebene_1-2" data-name="Ebene 1"><polygon class="cls-1" points="859.18 224.13 859.18 206.96 842.01 206.96 842.01 189.8 824.85 189.8 824.85 172.64 807.68 172.64 807.68 155.47 807.68 138.31 790.52 138.31 790.52 121.14 790.52 103.98 773.36 103.98 773.36 86.82 790.52 86.82 807.68 86.82 807.68 69.65 807.68 52.49 790.52 52.49 773.36 52.49 756.2 52.49 756.2 69.65 739.03 69.65 721.87 69.65 704.7 69.65 687.54 69.65 687.54 52.49 670.38 52.49 670.38 35.33 653.21 35.33 653.21 18.16 636.05 18.16 636.05 35.33 636.05 52.49 636.05 69.65 618.89 69.65 601.72 69.65 601.72 52.49 584.56 52.49 584.56 35.33 567.39 35.33 567.39 52.49 550.23 52.49 533.07 52.49 533.07 35.33 533.07 18.16 533.07 1 515.9 1 498.74 1 498.74 18.16 481.58 18.16 481.58 35.33 464.41 35.33 447.25 35.33 447.25 52.49 464.41 52.49 481.58 52.49 481.58 69.65 464.41 69.65 447.25 69.65 447.25 86.82 430.09 86.82 412.93 86.82 395.76 86.82 378.6 86.82 378.6 69.65 378.6 52.49 361.44 52.49 344.27 52.49 327.11 52.49 327.11 35.33 327.11 18.16 309.94 18.16 292.78 18.16 275.62 18.16 258.45 18.16 258.45 35.33 241.29 35.33 241.29 52.49 224.13 52.49 206.96 52.49 189.8 52.49 189.8 69.65 172.64 69.65 172.64 52.49 155.47 52.49 155.47 35.33 138.31 35.33 121.14 35.33 121.14 52.49 138.31 52.49 138.31 69.65 155.47 69.65 155.47 86.82 138.31 86.82 121.14 86.82 121.14 103.98 103.98 103.98 86.82 103.98 69.65 103.98 69.65 86.82 52.49 86.82 52.49 103.98 52.49 121.14 35.33 121.14 18.16 121.14 18.16 138.31 1 138.31 1 155.47 18.16 155.47 35.33 155.47 52.49 155.47 69.65 155.47 69.65 172.64 86.82 172.64 103.98 172.64 103.98 189.8 121.14 189.8 121.14 206.96 121.14 224.13 103.98 224.13 103.98 241.29 103.98 258.45 121.14 258.45 121.14 275.62 103.98 275.62 86.82 275.62 86.82 292.78 69.65 292.78 69.65 309.94 52.49 309.94 52.49 327.11 69.65 327.11 86.82 327.11 103.98 327.11 103.98 344.27 103.98 361.43 121.14 361.43 121.14 378.6 121.14 395.76 138.31 395.76 138.31 412.92 138.31 430.09 138.31 447.25 155.47 447.25 155.47 430.09 172.64 430.09 172.64 412.92 189.8 412.92 206.96 412.92 224.13 412.92 224.13 395.76 241.29 395.76 241.29 412.92 241.29 430.09 258.45 430.09 275.62 430.09 292.78 430.09 292.78 412.92 309.94 412.92 309.94 395.76 327.11 395.76 344.27 395.76 344.27 412.92 361.44 412.92 378.6 412.92 378.6 430.09 378.6 447.25 395.76 447.25 395.76 464.41 395.76 481.58 412.93 481.58 412.93 464.41 412.93 447.25 430.09 447.25 447.25 447.25 464.41 447.25 464.41 430.09 481.58 430.09 498.74 430.09 498.74 447.25 515.9 447.25 515.9 430.09 515.9 412.92 533.07 412.92 533.07 395.76 550.23 395.76 567.39 395.76 584.56 395.76 584.56 412.92 601.72 412.92 618.89 412.92 618.89 430.09 636.05 430.09 653.21 430.09 653.21 412.92 636.05 412.92 636.05 395.76 636.05 378.6 653.21 378.6 653.21 395.76 670.38 395.76 687.54 395.76 687.54 412.92 704.7 412.92 704.7 430.09 721.87 430.09 721.87 412.92 721.87 395.76 739.03 395.76 756.2 395.76 756.2 412.92 773.36 412.92 773.36 395.76 773.36 378.6 790.52 378.6 807.68 378.6 807.68 361.43 824.85 361.43 842.01 361.43 842.01 344.27 842.01 327.11 842.01 309.94 842.01 292.78 859.18 292.78 876.34 292.78 876.34 275.62 859.18 275.62 859.18 258.45 876.34 258.45 876.34 241.29 876.34 224.13 859.18 224.13"/></g></g></svg>