<svg xmlns="http://www.w3.org/2000/svg" viewBox="0 0 991 621.14"><defs><style>.cls-1{fill:#fff;stroke:#000;stroke-miterlimit:10;stroke-width:2px;}</style></defs><g id="Ebene_2" data-name="Ebene 2"><g id="Ebene_1-2" data-name="Ebene 1"><polygon class="cls-1" points="970.89 190 951.79 190 951.79 171.1 951.79 152.2 951.79 133.31 932.67 133.31 932.67 103.38 932.67 84.47 899.07 84.47 899.07 65.57 899.07 46.68 879.97 46.68 879.97 27.78 860.86 27.78 841.75 27.78 822.64 27.78 803.53 27.78 803.53 46.68 784.42 46.68 784.42 65.57 765.32 65.57 746.21 65.57 727.1 65.57 707.99 65.57 688.88 65.57 688.88 84.47 669.78 84.47 650.67 84.47 650.67 65.57 650.67 46.68 631.56 46.68 631.56 27.78 612.45 27.78 612.45 19.91 612.45 1 593.35 1 574.24 1 574.24 19.91 555.13 19.91 555.13 27.78 536.02 27.78 536.02 46.68 516.91 46.68 516.91 65.57 497.81 65.57 478.7 65.57 478.7 84.47 459.59 84.47 440.49 84.47 440.49 103.38 421.37 103.38 402.26 103.38 383.16 103.38 364.05 103.38 364.05 84.47 344.95 84.47 344.95 65.57 344.95 46.68 344.95 27.78 325.83 27.78 306.73 27.78 287.62 27.78 287.62 46.68 268.51 46.68 268.51 65.57 249.41 65.57 249.41 84.47 230.29 84.47 211.19 84.47 192.08 84.47 172.97 84.47 172.97 103.38 153.87 103.38 153.87 84.47 153.87 65.57 134.75 65.57 115.65 65.57 115.65 84.47 96.54 84.47 77.43 84.47 58.33 84.47 58.33 103.38 39.21 103.38 20.11 103.38 20.11 133.31 39.21 133.31 58.33 133.31 58.33 152.2 58.33 171.1 39.21 171.1 39.21 190 39.21 208.91 58.33 208.91 58.33 227.81 77.43 227.81 96.54 227.81 96.54 246.7 77.43 246.7 77.43 265.6 58.33 265.6 39.21 265.6 39.21 284.5 20.11 284.5 20.11 303.41 20.11 322.31 39.21 322.31 39.21 341.2 39.21 360.1 58.33 360.1 58.33 379 39.21 379 39.21 397.9 58.33 397.9 77.43 397.9 77.43 416.81 58.33 416.81 58.33 435.7 39.21 435.7 39.21 454.6 39.21 473.5 20.11 473.5 20.11 492.4 1 492.4 1 514.61 20.11 514.61 20.11 533.51 39.21 533.51 58.33 533.51 58.33 563.44 77.43 563.44 77.43 582.34 96.54 582.34 96.54 563.44 115.65 563.44 134.75 563.44 153.87 563.44 153.87 533.51 172.97 533.51 192.08 533.51 192.08 514.61 211.19 514.61 230.29 514.61 249.41 514.61 249.41 533.51 268.51 533.51 287.62 533.51 306.73 533.51 325.83 533.51 325.83 563.44 325.83 582.34 344.95 582.34 364.05 582.34 383.16 582.34 383.16 601.23 383.16 620.14 402.26 620.14 421.37 620.14 440.49 620.14 440.49 601.23 440.49 582.34 459.59 582.34 459.59 563.44 478.7 563.44 497.81 563.44 516.91 563.44 536.02 563.44 536.02 582.34 536.02 601.23 555.13 601.23 574.24 601.23 574.24 620.14 593.35 620.14 612.45 620.14 612.45 601.23 631.56 601.23 650.67 601.23 650.67 582.34 669.78 582.34 688.88 582.34 707.99 582.34 707.99 563.44 727.1 563.44 746.21 563.44 765.32 563.44 765.32 533.51 784.42 533.51 784.42 514.61 803.53 514.61 822.64 514.61 822.64 492.4 841.75 492.4 841.75 514.61 860.86 514.61 879.97 514.61 899.07 514.61 932.67 514.61 932.67 492.4 932.67 473.5 951.79 473.5 951.79 454.6 970.89 454.6 970.89 435.7 951.79 435.7 951.79 416.81 970.89 416.81 970.89 397.9 990 397.9 990 379 990 360.1 990 341.2 970.89 341.2 970.89 322.31 951.79 322.31 951.79 303.41 951.79 284.5 970.89 284.5 990 284.5 990 265.6 990 246.7 970.89 246.7 970.89 227.81 990 227.81 990 208.91 990 190 970.89 190"/></g></g></svg>