<svg xmlns="http://www.w3.org/2000/svg" viewBox="0 0 950.94 499.71"><defs><style>.cls-1{fill:blue;stroke:blue;stroke-miterlimit:10;stroke-width:2px;}</style></defs><g id="Ebene_2" data-name="Ebene 2"><g id="Ebene_1-2" data-name="Ebene 1"><polygon class="cls-1" points="931.34 273.94 931.34 257.89 912.73 257.89 912.73 241.84 912.73 225.78 894.13 225.78 875.51 225.78 875.51 209.72 875.51 193.67 875.51 177.61 894.13 177.61 912.73 177.61 912.73 161.56 912.73 145.5 912.73 129.44 894.13 129.44 894.13 145.5 875.51 145.5 875.51 129.44 875.51 113.39 875.51 97.33 856.91 97.33 856.91 81.28 856.91 65.22 838.3 65.22 819.7 65.22 819.7 81.28 801.1 81.28 801.1 65.22 782.48 65.22 763.88 65.22 763.88 81.28 745.27 81.28 745.27 65.22 745.27 49.17 726.66 49.17 726.66 33.11 708.05 33.11 708.05 17.06 689.45 17.06 689.45 1 670.85 1 670.85 17.06 670.85 33.11 652.24 33.11 633.63 33.11 615.02 33.11 615.02 49.17 596.42 49.17 577.82 49.17 559.2 49.17 540.6 49.17 540.6 33.11 521.99 33.11 503.39 33.11 484.77 33.11 466.17 33.11 447.57 33.11 428.96 33.11 410.35 33.11 391.74 33.11 373.14 33.11 354.53 33.11 354.53 49.17 335.92 49.17 317.32 49.17 298.71 49.17 280.11 49.17 261.49 49.17 261.49 65.22 280.11 65.22 298.71 65.22 298.71 81.28 298.71 97.33 280.11 97.33 261.49 97.33 261.49 81.28 242.89 81.28 224.28 81.28 205.68 81.28 205.68 65.22 187.07 65.22 168.46 65.22 168.46 81.28 149.86 81.28 131.25 81.28 131.25 65.22 112.64 65.22 112.64 81.28 94.04 81.28 94.04 97.33 94.04 113.39 94.04 129.44 75.43 129.44 56.83 129.44 56.83 145.5 38.22 145.5 38.22 161.56 19.61 161.56 1 161.56 1 177.61 19.61 177.61 38.22 177.61 38.22 193.67 56.83 193.67 75.43 193.67 94.04 193.67 94.04 209.72 94.04 225.78 94.04 241.84 75.43 241.84 75.43 257.89 75.43 273.94 56.83 273.94 56.83 289.99 56.83 306.05 38.22 306.05 38.22 322.1 56.83 322.1 75.43 322.1 75.43 338.16 56.83 338.16 56.83 354.21 56.83 370.27 75.43 370.27 94.04 370.27 94.04 386.32 94.04 402.38 94.04 418.44 75.43 418.44 75.43 434.49 56.83 434.49 56.83 450.55 75.43 450.55 94.04 450.55 94.04 466.6 112.64 466.6 131.25 466.6 149.86 466.6 168.46 466.6 168.46 450.55 187.07 450.55 205.68 450.55 205.68 434.49 224.28 434.49 224.28 450.55 224.28 466.6 242.89 466.6 261.49 466.6 280.11 466.6 280.11 482.66 280.11 498.71 298.71 498.71 317.32 498.71 335.92 498.71 335.92 482.66 335.92 466.6 354.53 466.6 373.14 466.6 391.74 466.6 410.35 466.6 410.35 450.55 391.74 450.55 391.74 434.49 410.35 434.49 428.96 434.49 447.57 434.49 447.57 418.44 466.17 418.44 484.77 418.44 503.39 418.44 521.99 418.44 540.6 418.44 540.6 434.49 559.2 434.49 577.82 434.49 577.82 450.55 596.42 450.55 615.02 450.55 615.02 434.49 615.02 418.44 633.63 418.44 652.24 418.44 670.85 418.44 670.85 434.49 689.45 434.49 708.05 434.49 708.05 450.55 726.66 450.55 726.66 466.6 745.27 466.6 745.27 450.55 745.27 434.49 763.88 434.49 782.48 434.49 782.48 418.44 801.1 418.44 801.1 434.49 819.7 434.49 838.3 434.49 856.91 434.49 856.91 450.55 875.51 450.55 894.13 450.55 894.13 434.49 894.13 418.44 912.73 418.44 931.34 418.44 931.34 402.38 931.34 386.32 912.73 386.32 912.73 370.27 894.13 370.27 894.13 354.21 875.51 354.21 875.51 338.16 894.13 338.16 894.13 322.1 912.73 322.1 912.73 306.05 931.34 306.05 931.34 289.99 949.94 289.99 949.94 273.94 931.34 273.94"/></g></g></svg>