<svg xmlns="http://www.w3.org/2000/svg" viewBox="0 0 957.05 430.79"><defs><style>.cls-1{fill:#fff;stroke:blue;stroke-miterlimit:10;stroke-width:2px;}</style></defs><g id="Ebene_2" data-name="Ebene 2"><g id="Ebene_1-2" data-name="Ebene 1"><polygon class="cls-1" points="936.56 195.91 936.56 176.42 917.06 176.42 897.57 176.42 878.09 176.42 878.09 156.93 897.57 156.93 897.57 137.44 897.57 117.94 878.09 117.94 878.09 98.45 858.6 98.45 839.11 98.45 839.11 78.97 839.11 59.48 819.61 59.48 800.12 59.48 800.12 78.97 780.63 78.97 780.63 59.48 780.63 39.99 761.14 39.99 741.65 39.99 741.65 59.48 722.15 59.48 722.15 78.97 702.67 78.97 683.18 78.97 663.69 78.97 663.69 59.48 644.2 59.48 624.7 59.48 624.7 39.99 605.21 39.99 585.72 39.99 566.24 39.99 546.75 39.99 546.75 20.49 527.25 20.49 507.76 20.49 507.76 39.99 488.27 39.99 468.78 39.99 449.29 39.99 429.8 39.99 429.8 59.48 410.3 59.48 410.3 39.99 410.3 20.49 390.81 20.49 371.33 20.49 371.33 1 351.84 1 332.35 1 312.85 1 293.36 1 273.87 1 273.87 20.49 254.38 20.49 234.9 20.49 234.9 39.99 215.4 39.99 195.91 39.99 195.91 20.49 176.42 20.49 156.93 20.49 156.93 39.99 137.44 39.99 117.94 39.99 117.94 59.48 117.94 78.97 98.45 78.97 98.45 98.45 78.97 98.45 59.48 98.45 39.99 98.45 39.99 117.94 39.99 137.44 20.49 137.44 1 137.44 1 156.93 20.49 156.93 20.49 176.42 39.99 176.42 59.48 176.42 78.97 176.42 78.97 195.91 78.97 215.4 78.97 234.9 78.97 254.38 78.97 273.87 98.45 273.87 117.94 273.87 117.94 293.36 117.94 312.85 117.94 332.34 117.94 351.84 137.44 351.84 137.44 371.33 156.93 371.33 176.42 371.33 176.42 390.81 195.91 390.81 195.91 410.3 195.91 429.79 215.4 429.79 215.4 410.3 234.9 410.3 234.9 390.81 254.38 390.81 254.38 371.33 273.87 371.33 293.36 371.33 293.36 390.81 312.85 390.81 312.85 410.3 332.35 410.3 332.35 390.81 351.84 390.81 351.84 371.33 371.33 371.33 390.81 371.33 410.3 371.33 429.8 371.33 449.29 371.33 449.29 351.84 468.78 351.84 488.27 351.84 507.76 351.84 527.25 351.84 527.25 371.33 527.25 390.81 546.75 390.81 546.75 410.3 566.24 410.3 585.72 410.3 605.21 410.3 624.7 410.3 644.2 410.3 644.2 390.81 644.2 371.33 644.2 351.84 663.69 351.84 683.18 351.84 702.67 351.84 722.15 351.84 741.65 351.84 741.65 371.33 761.14 371.33 761.14 390.81 780.63 390.81 800.12 390.81 800.12 371.33 800.12 351.84 819.61 351.84 819.61 332.34 839.11 332.34 858.6 332.34 878.09 332.34 878.09 351.84 897.57 351.84 917.06 351.84 936.56 351.84 936.56 332.34 936.56 312.85 936.56 293.36 917.06 293.36 917.06 273.87 917.06 254.38 936.56 254.38 936.56 234.9 956.05 234.9 956.05 215.4 956.05 195.91 936.56 195.91"/></g></g></svg>