<svg xmlns="http://www.w3.org/2000/svg" viewBox="0 0 798.34 400.01"><defs><style>.cls-1{stroke:#000;stroke-miterlimit:10;stroke-width:2px;}</style></defs><g id="Ebene_2" data-name="Ebene 2"><g id="Ebene_1-2" data-name="Ebene 1"><polygon class="cls-1" points="780.44 83.92 763.86 83.92 747.27 83.92 747.27 67.34 730.69 67.34 714.11 67.34 697.52 67.34 680.94 67.34 680.94 83.92 664.35 83.92 664.35 67.34 647.77 67.34 647.77 50.75 631.18 50.75 631.18 34.17 614.6 34.17 598.02 34.17 581.43 34.17 564.85 34.17 564.85 50.75 548.27 50.75 548.27 34.17 531.68 34.17 515.1 34.17 515.1 50.75 498.51 50.75 481.93 50.75 481.93 67.34 465.35 67.34 448.76 67.34 448.76 83.92 432.18 83.92 415.6 83.92 415.6 100.5 399.01 100.5 399.01 83.92 382.43 83.92 382.43 67.34 365.85 67.34 365.85 83.92 365.85 100.5 349.26 100.5 332.68 100.5 316.09 100.5 316.09 83.92 299.51 83.92 282.93 83.92 266.34 83.92 266.34 67.34 266.34 50.75 249.76 50.75 233.17 50.75 233.17 34.17 233.17 17.58 216.59 17.58 200.01 17.58 200.01 1 183.42 1 183.42 17.58 166.84 17.58 150.25 17.58 150.25 34.17 133.67 34.17 133.67 50.75 133.67 67.34 117.09 67.34 117.09 83.92 117.09 100.5 100.5 100.5 100.5 83.92 83.92 83.92 67.33 83.92 50.75 83.92 50.75 100.5 67.33 100.5 67.33 117.09 50.75 117.09 50.75 133.67 50.75 150.25 34.17 150.25 34.17 166.84 17.58 166.84 1 166.84 1 183.42 17.58 183.42 17.58 200.01 34.17 200.01 34.17 216.59 34.17 233.18 17.58 233.18 17.58 249.76 34.17 249.76 50.75 249.76 50.75 266.34 50.75 282.93 50.75 299.51 67.33 299.51 67.33 316.09 67.33 332.68 50.75 332.68 50.75 349.26 67.33 349.26 83.92 349.26 100.5 349.26 100.5 365.85 117.09 365.85 133.67 365.85 150.25 365.85 166.84 365.85 166.84 349.26 183.42 349.26 183.42 365.85 200.01 365.85 200.01 382.43 200.01 399.01 216.59 399.01 233.17 399.01 249.76 399.01 249.76 382.43 249.76 365.85 266.34 365.85 282.93 365.85 299.51 365.85 299.51 382.43 316.09 382.43 332.68 382.43 349.26 382.43 365.85 382.43 365.85 399.01 382.43 399.01 399.01 399.01 399.01 382.43 382.43 382.43 382.43 365.85 399.01 365.85 415.6 365.85 432.18 365.85 432.18 349.26 432.18 332.68 448.76 332.68 465.35 332.68 481.93 332.68 481.93 316.09 498.51 316.09 498.51 332.68 515.1 332.68 515.1 349.26 531.68 349.26 548.27 349.26 564.85 349.26 581.43 349.26 581.43 365.85 598.02 365.85 598.02 382.43 598.02 399.01 614.6 399.01 631.18 399.01 647.77 399.01 664.35 399.01 664.35 382.43 680.94 382.43 680.94 365.85 680.94 349.26 697.52 349.26 697.52 332.68 714.11 332.68 714.11 316.09 714.11 299.51 730.69 299.51 747.27 299.51 763.86 299.51 763.86 282.93 780.44 282.93 780.44 266.34 780.44 249.76 780.44 233.18 780.44 216.59 780.44 200.01 763.86 200.01 763.86 183.42 747.27 183.42 747.27 166.84 730.69 166.84 730.69 150.25 730.69 133.67 730.69 117.09 747.27 117.09 763.86 117.09 763.86 133.67 780.44 133.67 780.44 117.09 780.44 100.5 797.02 100.5 797.02 83.92 780.44 83.92"/><polygon class="cls-1" points="780.75 83.92 764.17 83.92 747.59 83.92 747.59 67.34 731 67.34 714.42 67.34 697.84 67.34 681.25 67.34 681.25 83.92 664.67 83.92 664.67 67.34 648.08 67.34 648.08 50.75 631.5 50.75 631.5 34.17 614.91 34.17 598.33 34.17 581.75 34.17 565.16 34.17 565.16 50.75 548.58 50.75 548.58 34.17 532 34.17 515.41 34.17 515.41 50.75 498.83 50.75 482.25 50.75 482.25 67.34 465.66 67.34 449.08 67.34 449.08 83.92 432.49 83.92 415.91 83.92 415.91 100.5 399.32 100.5 399.32 83.92 382.74 83.92 382.74 67.34 366.16 67.34 366.16 83.92 366.16 100.5 349.57 100.5 332.99 100.5 316.41 100.5 316.41 83.92 299.82 83.92 283.24 83.92 266.65 83.92 266.65 67.34 266.65 50.75 250.07 50.75 233.49 50.75 233.49 34.17 233.49 17.58 216.91 17.58 200.32 17.58 200.32 1 183.74 1 183.74 17.58 167.15 17.58 150.57 17.58 150.57 34.17 133.98 34.17 133.98 50.75 133.98 67.34 117.4 67.34 117.4 83.92 117.4 100.5 100.82 100.5 100.82 83.92 84.23 83.92 67.65 83.92 51.07 83.92 51.07 100.5 67.65 100.5 67.65 117.09 51.07 117.09 51.07 133.67 51.07 150.25 34.48 150.25 34.48 166.84 17.9 166.84 1.31 166.84 1.31 183.42 17.9 183.42 17.9 200.01 34.48 200.01 34.48 216.59 34.48 233.18 17.9 233.18 17.9 249.76 34.48 249.76 51.07 249.76 51.07 266.34 51.07 282.93 51.07 299.51 67.65 299.51 67.65 316.09 67.65 332.68 51.07 332.68 51.07 349.26 67.65 349.26 84.23 349.26 100.82 349.26 100.82 365.85 117.4 365.85 133.98 365.85 150.57 365.85 167.15 365.85 167.15 349.26 183.74 349.26 183.74 365.85 200.32 365.85 200.32 382.43 200.32 399.01 216.91 399.01 233.49 399.01 250.07 399.01 250.07 382.43 250.07 365.85 266.65 365.85 283.24 365.85 299.82 365.85 299.82 382.43 316.41 382.43 332.99 382.43 349.57 382.43 366.16 382.43 366.16 399.01 382.74 399.01 399.32 399.01 399.32 382.43 382.74 382.43 382.74 365.85 399.32 365.85 415.91 365.85 432.49 365.85 432.49 349.26 432.49 332.68 449.08 332.68 465.66 332.68 482.25 332.68 482.25 316.09 498.83 316.09 498.83 332.68 515.41 332.68 515.41 349.26 532 349.26 548.58 349.26 565.16 349.26 581.75 349.26 581.75 365.85 598.33 365.85 598.33 382.43 598.33 399.01 614.91 399.01 631.5 399.01 648.08 399.01 664.67 399.01 664.67 382.43 681.25 382.43 681.25 365.85 681.25 349.26 697.84 349.26 697.84 332.68 714.42 332.68 714.42 316.09 714.42 299.51 731 299.51 747.59 299.51 764.17 299.51 764.17 282.93 780.75 282.93 780.75 266.34 780.75 249.76 780.75 233.18 780.75 216.59 780.75 200.01 764.17 200.01 764.17 183.42 747.59 183.42 747.59 166.84 731 166.84 731 150.25 731 133.67 731 117.09 747.59 117.09 764.17 117.09 764.17 133.67 780.75 133.67 780.75 117.09 780.75 100.5 797.34 100.5 797.34 83.92 780.75 83.92"/></g></g></svg>