<svg xmlns="http://www.w3.org/2000/svg" viewBox="0 0 494.04 301.75"><defs><style>.cls-1,.cls-2{stroke:#000;stroke-miterlimit:10;stroke-width:2px;}.cls-2{fill:#fff;}</style></defs><g id="Ebene_2" data-name="Ebene 2"><g id="Ebene_1-2" data-name="Ebene 1"><path class="cls-1" d="M367.22,173.94V162.41H342v11.53h12.61V197H342v11.53H304.16V197H278.94V185.46H203.28V197H165.45v23.06H152.84v23.06H140.23v11.53h12.61v11.53h25.22V243.11H165.45V231.58h12.61V208.52h75.66v34.59H241.11v11.53H228.5v11.53H215.89V277.7H190.67v11.53H89.79V277.7H64.57V220.05H77.18V197H89.79V185.46H102.4V173.94H115V162.41h12.61V150.88h63v11.53h63.05V150.88h12.61V116.29H165.45V70.18h12.61V58.65h12.61V47.12h12.61V35.59H228.5V24.06h50.44V12.53h50.45V24.06H342V58.65H329.39V70.18H291.55V58.65H278.94V81.7h12.61V93.23h25.22V81.7H342V70.18h12.61V12.53H342V1H266.33V12.53H215.89V24.06H190.67V35.59H152.84V70.18H140.23V81.7H127.62v46.12h12.61v11.53H115v11.53H102.4v11.53H89.79v11.53H64.57v11.52H52V197H39.35v23.06H26.73v11.53H14.12v23.06H26.73V277.7H39.35v11.53H52v11.52H203.28V289.23H228.5V277.7h12.61V266.17h12.61V254.64h12.61V220.05h88.28V208.52h12.61V197h12.61V173.94ZM190.67,127.82h63.05v11.53H241.11v11.53H203.28V139.35H178.06V127.82Z"/><path class="cls-2" d="M354.09,173.94V162.41H328.87v11.53h12.61V197H328.87v11.53H291V197H265.82V185.46H190.15V197H152.33v23.06H139.72v23.06H127.11v11.53h12.61v11.53h25.22V243.11H152.33V231.58h12.61V208.52H240.6v34.59H228v11.53H215.38v11.53H202.77V277.7H177.55v11.53H76.66V277.7H51.44V220.05H64.05V197H76.66V185.46H89.27V173.94h12.62V162.41H114.5V150.88h63.05v11.53h63V150.88h12.61V116.29H152.33V70.18h12.61V58.65h12.61V47.12h12.6V35.59h25.23V24.06h50.44V12.53h50.44V24.06h12.61V58.65H316.26V70.18H278.43V58.65H265.82V81.7h12.61V93.23h25.22V81.7h25.22V70.18h12.61V12.53H328.87V1H253.21V12.53H202.77V24.06H177.55V35.59H139.72V70.18H127.11V81.7H114.5v46.12h12.61v11.53H101.89v11.53H89.27v11.53H76.66v11.53H51.44v11.52H38.83V197H26.22v23.06H13.61v11.53H1v23.06H13.61V277.7H26.22v11.53H38.83v11.52H190.15V289.23h25.23V277.7H228V266.17H240.6V254.64h12.61V220.05h88.27V208.52h12.61V197H366.7V173.94ZM177.55,127.82h63v11.53H228v11.53H190.15V139.35H164.94V127.82Z"/><rect class="cls-2" x="290.7" y="98.35" width="200.61" height="49.4" transform="translate(790.57 214.59) rotate(175.44)"/><rect class="cls-2" x="279.84" y="98.75" width="201.76" height="49.44" transform="translate(770.06 216.26) rotate(175.44)"/></g></g></svg>