<?xml version="1.0" encoding="UTF-8" standalone="no"?>
<svg
   xmlns:dc="http://purl.org/dc/elements/1.1/"
   xmlns:cc="http://creativecommons.org/ns#"
   xmlns:rdf="http://www.w3.org/1999/02/22-rdf-syntax-ns#"
   xmlns:svg="http://www.w3.org/2000/svg"
   xmlns="http://www.w3.org/2000/svg"
   xmlns:sodipodi="http://sodipodi.sourceforge.net/DTD/sodipodi-0.dtd"
   xmlns:inkscape="http://www.inkscape.org/namespaces/inkscape"
   viewBox="0 0 194.58 291.77"
   version="1.1"
   id="svg12"
   sodipodi:docname="Inters_u_Diskriminierung_blue.svg"
   inkscape:version="0.92.5 (2060ec1f9f, 2020-04-08)">
  <metadata
     id="metadata16">
    <rdf:RDF>
      <cc:Work
         rdf:about="">
        <dc:format>image/svg+xml</dc:format>
        <dc:type
           rdf:resource="http://purl.org/dc/dcmitype/StillImage" />
        <dc:title></dc:title>
      </cc:Work>
    </rdf:RDF>
  </metadata>
  <sodipodi:namedview
     pagecolor="#ffffff"
     bordercolor="#666666"
     borderopacity="1"
     objecttolerance="10"
     gridtolerance="10"
     guidetolerance="10"
     inkscape:pageopacity="0"
     inkscape:pageshadow="2"
     inkscape:window-width="1848"
     inkscape:window-height="1016"
     id="namedview14"
     showgrid="false"
     inkscape:zoom="1.6177126"
     inkscape:cx="8.6936759"
     inkscape:cy="104.11017"
     inkscape:window-x="72"
     inkscape:window-y="27"
     inkscape:window-maximized="1"
     inkscape:current-layer="svg12" />
  <defs
     id="defs4">
    <style
       id="style2">.cls-1,.cls-2{stroke:#000;stroke-miterlimit:10;stroke-width:2px;}.cls-2{fill:#fff;}</style>
  </defs>
  <polygon
     class="cls-1"
     points="143.84,29.96 143.84,44.46 129.56,44.46 129.56,58.95 115.27,58.95 115.27,73.44 100.99,73.44 100.99,87.92 86.71,87.92 72.42,87.92 58.14,87.92 58.14,102.41 72.42,102.41 86.71,102.41 86.71,116.91 72.42,116.91 72.42,131.39 72.42,145.88 58.14,145.88 58.14,160.37 43.85,160.37 43.85,174.85 29.57,174.85 29.57,189.35 29.57,203.83 15.29,203.83 15.29,218.33 15.29,232.81 1,232.81 1,247.29 1,261.79 1,276.27 15.29,276.27 15.29,290.77 29.57,290.77 43.85,290.77 58.14,290.77 58.14,276.27 72.42,276.27 72.42,261.79 86.71,261.79 100.99,261.79 100.99,247.29 115.27,247.29 115.27,232.81 129.56,232.81 129.56,218.33 115.27,218.33 100.99,218.33 100.99,232.81 86.71,232.81 86.71,247.29 72.42,247.29 58.14,247.29 58.14,261.79 43.85,261.79 43.85,247.29 43.85,232.81 58.14,232.81 58.14,218.33 58.14,203.83 72.42,203.83 72.42,189.35 86.71,189.35 86.71,174.85 86.71,160.37 100.99,160.37 100.99,145.88 115.27,145.88 115.27,131.39 115.27,116.91 129.56,116.91 129.56,102.41 143.84,102.41 158.12,102.41 172.41,102.41 172.41,87.92 158.12,87.92 143.84,87.92 143.84,73.44 158.12,73.44 158.12,58.95 172.41,58.95 172.41,44.46 172.41,29.96 186.69,29.96 186.69,15.48 186.69,1 172.41,1 172.41,15.48 158.12,15.48 158.12,29.96 "
     id="polygon6"
     style="stroke:#0000ff;stroke-width:2px;stroke-miterlimit:10;stroke-opacity:1;fill:#0000ff;fill-opacity:1" />
  <polygon
     class="cls-2"
     points="150.74,29.96 150.74,44.46 136.46,44.46 136.46,58.95 122.17,58.95 122.17,73.44 107.89,73.44 107.89,87.92 93.61,87.92 79.32,87.92 65.04,87.92 65.04,102.41 79.32,102.41 93.61,102.41 93.61,116.91 79.32,116.91 79.32,131.39 79.32,145.88 65.04,145.88 65.04,160.37 50.75,160.37 50.75,174.85 36.47,174.85 36.47,189.35 36.47,203.83 22.19,203.83 22.19,218.33 22.19,232.81 7.9,232.81 7.9,247.29 7.9,261.79 7.9,276.27 22.19,276.27 22.19,290.77 36.47,290.77 50.75,290.77 65.04,290.77 65.04,276.27 79.32,276.27 79.32,261.79 93.61,261.79 107.89,261.79 107.89,247.29 122.17,247.29 122.17,232.81 136.46,232.81 136.46,218.33 122.17,218.33 107.89,218.33 107.89,232.81 93.61,232.81 93.61,247.29 79.32,247.29 65.04,247.29 65.04,261.79 50.75,261.79 50.75,247.29 50.75,232.81 65.04,232.81 65.04,218.33 65.04,203.83 79.32,203.83 79.32,189.35 93.61,189.35 93.61,174.85 93.61,160.37 107.89,160.37 107.89,145.88 122.17,145.88 122.17,131.39 122.17,116.91 136.46,116.91 136.46,102.41 150.74,102.41 165.01,102.41 179.31,102.41 179.31,87.92 165.01,87.92 150.74,87.92 150.74,73.44 165.01,73.44 165.01,58.95 179.31,58.95 179.31,44.46 179.31,29.96 193.58,29.96 193.58,15.48 193.58,1 179.31,1 179.31,15.48 165.01,15.48 165.01,29.96 "
     id="polygon8"
     style="fill:#ffffff;stroke:#0000ff;stroke-width:2px;stroke-miterlimit:10;stroke-opacity:1;fill-opacity:1" />
</svg>
