<svg xmlns="http://www.w3.org/2000/svg" viewBox="0 0 956.32 399.07"><defs><style>.cls-1,.cls-2,.cls-3{fill:#fff;}.cls-1,.cls-5{stroke:#000;}.cls-1,.cls-3,.cls-4,.cls-5{stroke-miterlimit:10;stroke-width:2px;}.cls-3,.cls-4{stroke:blue;}.cls-4{fill:blue;}</style></defs><g id="Ebene_2" data-name="Ebene 2"><g id="Ebene_1-2" data-name="Ebene 1"><path class="cls-1" d="M271.68,397.94l-5.15-35.3,12.05-1.76a21.31,21.31,0,0,1,10.53.7,14,14,0,0,1,6.85,5.28,23.53,23.53,0,0,1,2.72,18.61,14,14,0,0,1-5.06,7,21.28,21.28,0,0,1-9.89,3.69Zm5.65-6.49,5.29-.77a14.62,14.62,0,0,0,6.8-2.47,8.26,8.26,0,0,0,3.08-4.67,20,20,0,0,0-1.91-13,8.34,8.34,0,0,0-4.29-3.64,14.31,14.31,0,0,0-7.22-.44l-5.3.77Z"/><path class="cls-1" d="M308.15,392.61,303,357.31,326,354l.76,5.19-16.6,2.42,1.42,9.69L326.7,369l.73,5-15.07,2.2,1.48,10.19,16.59-2.43.76,5.2Z"/><path class="cls-1" d="M337.82,388.28,332.66,353l13-1.9a15.22,15.22,0,0,1,7.2.42,9.82,9.82,0,0,1,4.68,3.29,11.42,11.42,0,0,1,1.32,11.37,9.73,9.73,0,0,1-4.7,4.65l9.47,13.71-7.41,1.08-8.59-13-5.35.78,2,13.92Zm3.73-19.6,6.1-.89c2.15-.32,3.66-1.07,4.51-2.26a5.75,5.75,0,0,0,.91-4.36,5.52,5.52,0,0,0-2.08-3.81q-1.69-1.31-5-.81l-6,.88Z"/><path class="cls-1" d="M382.75,381.72l-5.15-35.3,6.45-.95,5.16,35.3Z"/><path class="cls-1" d="M397,379.63l-5.15-35.3,6.45-.94,20.23,22.43L414.93,341l6.46-.94,5.15,35.3-6.45.94-20.22-22.38,3.63,24.81Z"/><path class="cls-1" d="M441.61,373.12,437.21,343l-10.29,1.51-.76-5.2,27.09-3.95.75,5.19-10.33,1.51,4.39,30.11Z"/><path class="cls-1" d="M463.15,370,458,334.67l23-3.36.76,5.19-16.59,2.43,1.41,9.68,15.08-2.2.74,5-15.08,2.2,1.49,10.19,16.59-2.43.76,5.2Z"/><path class="cls-1" d="M492.82,365.64l-5.15-35.3,13-1.89a15.07,15.07,0,0,1,7.19.41,9.89,9.89,0,0,1,4.68,3.29,11.45,11.45,0,0,1,1.33,11.37,9.76,9.76,0,0,1-4.71,4.65l9.47,13.71L511.18,363l-8.59-13-5.34.78,2,13.92Zm3.73-19.6,6.1-.89c2.16-.32,3.66-1.07,4.52-2.26a5.77,5.77,0,0,0,.91-4.35,5.58,5.58,0,0,0-2.08-3.82q-1.71-1.29-5-.81l-6,.88Z"/><path class="cls-1" d="M536.43,359.89a16.79,16.79,0,0,1-7.06-.33,11.15,11.15,0,0,1-5.25-3.15,10.91,10.91,0,0,1-2.65-5.82l6.81-1a6.09,6.09,0,0,0,2.4,3.89,7.39,7.39,0,0,0,8.81-.82,4.08,4.08,0,0,0,1-3.52,4.38,4.38,0,0,0-1.83-3.19,10.16,10.16,0,0,0-3.84-1.44l-5-.93a15.67,15.67,0,0,1-6.75-2.72,8.2,8.2,0,0,1-3-5.58,9.13,9.13,0,0,1,.7-5.59,10.31,10.31,0,0,1,3.71-4.1,16.16,16.16,0,0,1,12.38-1.78,10.32,10.32,0,0,1,4.75,2.91,10,10,0,0,1,2.43,5.16l-6.91,1a4.86,4.86,0,0,0-1.92-3.1,5.18,5.18,0,0,0-4.07-.87,5.56,5.56,0,0,0-3.4,1.55,3.77,3.77,0,0,0-1,3.36,3.67,3.67,0,0,0,1.52,2.64,8.92,8.92,0,0,0,3.28,1.3c1.35.28,2.88.57,4.61.87a29.86,29.86,0,0,1,5.1,1.42,10,10,0,0,1,4,2.69,9.37,9.37,0,0,1,2.06,4.93,10.08,10.08,0,0,1-.66,5.35,10.4,10.4,0,0,1-3.63,4.42A14.78,14.78,0,0,1,536.43,359.89Z"/><path class="cls-1" d="M555.06,356.55l-5.16-35.3L573,317.89l.76,5.19-16.59,2.42,1.41,9.69L573.61,333l.73,5-15.07,2.2,1.48,10.19,16.6-2.43.75,5.2Z"/><path class="cls-1" d="M584.73,352.22l-5.16-35.3L586,316l2.08,14.28,11-16.18,8-1.17-11,15.92,16.47,19.33-7.92,1.16-12.47-14.87-2.84,4.18,1.85,12.66Z"/><path class="cls-1" d="M626.31,346.15,621.92,316l-10.29,1.5-.76-5.19,27.08-4,.76,5.2-10.34,1.51,4.4,30.1Z"/><path class="cls-1" d="M647.86,343l-5.16-35.3,6.46-.94,5.15,35.3Z"/><path class="cls-1" d="M678.51,339.14a18.11,18.11,0,0,1-9.59-1,16.52,16.52,0,0,1-7.14-5.52,21.43,21.43,0,0,1-2.78-19,16.56,16.56,0,0,1,5.26-7.34,19.8,19.8,0,0,1,18.49-2.7,16.35,16.35,0,0,1,7.14,5.53,21.73,21.73,0,0,1,2.77,19,16.28,16.28,0,0,1-5.26,7.33A18.13,18.13,0,0,1,678.51,339.14Zm-.85-5.8a10.38,10.38,0,0,0,7.56-4.5q2.52-3.76,1.67-9.57t-4.33-8.69a11.55,11.55,0,0,0-16.12,2.36q-2.54,3.76-1.69,9.57t4.36,8.68A10.46,10.46,0,0,0,677.66,333.34Z"/><path class="cls-1" d="M702.31,335.05l-5.16-35.3,6.46-.95,20.22,22.44-3.63-24.86,6.45-.94,5.16,35.3-6.46.94-20.21-22.39,3.62,24.82Z"/><path class="cls-1" d="M736.49,330.05l7.76-37.18,7.26-1.06,18.06,33.41-6.85,1-4-7.76-13.77,2-1.68,8.59ZM746,315.18l10.24-1.5-7.29-13.92Z"/><path class="cls-1" d="M774.21,324.55l-5.16-35.3,6.46-.95,4.42,30.26,15.63-2.28.74,5Z"/><path class="cls-1" d="M801.5,320.56l-5.16-35.3,6.46-.94,5.15,35.3Z"/><path class="cls-1" d="M823,317.42l-4.39-30.11-10.29,1.51-.76-5.2,27.08-3.95.76,5.19-10.34,1.51,4.4,30.11Z"/><path class="cls-1" d="M838,315.23,845.78,278,853,277,871.1,310.4l-6.85,1-4-7.76-13.77,2-1.68,8.59Zm6.35-40.49a3,3,0,0,1-2.35-.58,3,3,0,0,1-1.24-2.09,3.16,3.16,0,1,1,6.26-.91,3,3,0,0,1-.59,2.35A3,3,0,0,1,844.37,274.74Zm3.12,25.61,10.24-1.5-7.29-13.92Zm6-26.93a3.12,3.12,0,0,1-3.59-2.67,3,3,0,0,1,.59-2.35,3,3,0,0,1,2.08-1.23,3.17,3.17,0,0,1,3,5A3.07,3.07,0,0,1,853.45,273.42Z"/><path class="cls-1" d="M879.58,309.16l-4.4-30.11-10.28,1.5-.76-5.19,27.08-4,.76,5.2-10.34,1.51L886,308.22Z"/><path class="cls-1" d="M6.29,136.45l-5.16-35.3,12.06-1.76a21.31,21.31,0,0,1,10.53.7,14,14,0,0,1,6.85,5.28A23.53,23.53,0,0,1,33.29,124a14,14,0,0,1-5.06,7,21.32,21.32,0,0,1-9.89,3.69ZM11.93,130l5.3-.77a14.66,14.66,0,0,0,6.8-2.47,8.26,8.26,0,0,0,3.08-4.67,17.35,17.35,0,0,0,.15-6.69A17.39,17.39,0,0,0,25.2,109a8.34,8.34,0,0,0-4.29-3.64,14.32,14.32,0,0,0-7.22-.44l-5.3.77Z"/><path class="cls-1" d="M38.37,131.76l7.75-37.18,7.26-1.06,18.07,33.41-6.86,1-4-7.75-13.76,2-1.68,8.59Zm9.47-14.87,10.23-1.5-7.28-13.92Z"/><path class="cls-1" d="M87.47,125.21a16.73,16.73,0,0,1-7-.33,11.31,11.31,0,0,1-5.25-3.15,10.84,10.84,0,0,1-2.65-5.82l6.81-1a6,6,0,0,0,2.39,3.9,7.41,7.41,0,0,0,8.82-.82,4.09,4.09,0,0,0,1-3.52,4.38,4.38,0,0,0-1.83-3.19,10.17,10.17,0,0,0-3.84-1.45l-5-.92a15.77,15.77,0,0,1-6.76-2.72,8.23,8.23,0,0,1-3-5.59,9,9,0,0,1,.7-5.58,10.29,10.29,0,0,1,3.7-4.1,14.82,14.82,0,0,1,6-2.13,14.58,14.58,0,0,1,6.41.35,10.38,10.38,0,0,1,4.75,2.91,10.11,10.11,0,0,1,2.43,5.16l-6.91,1a4.94,4.94,0,0,0-1.92-3.1,5.19,5.19,0,0,0-4.07-.87,5.54,5.54,0,0,0-3.4,1.55,3.72,3.72,0,0,0-1,3.36,3.67,3.67,0,0,0,1.52,2.64,9.1,9.1,0,0,0,3.28,1.3c1.34.28,2.88.57,4.61.87a30.12,30.12,0,0,1,5.1,1.42,9.87,9.87,0,0,1,3.94,2.69A9.22,9.22,0,0,1,98.36,113a10,10,0,0,1-.66,5.35,10.25,10.25,0,0,1-3.63,4.42A14.78,14.78,0,0,1,87.47,125.21Z"/><rect class="cls-2" x="391.67" y="146.4" height="0.86"/><line class="cls-2" x1="391.61" y1="146.4" x2="391.73" y2="147.25"/><line class="cls-2" x1="391.61" y1="146.4" x2="391.73" y2="147.25"/><line class="cls-2" x1="391.61" y1="146.4" x2="391.73" y2="147.25"/><line class="cls-2" x1="391.61" y1="146.4" x2="391.73" y2="147.25"/><line class="cls-2" x1="391.61" y1="146.4" x2="391.73" y2="147.25"/><line class="cls-2" x1="391.61" y1="146.4" x2="391.73" y2="147.25"/><line class="cls-2" x1="391.61" y1="146.4" x2="391.73" y2="147.25"/><line class="cls-2" x1="391.61" y1="146.4" x2="391.73" y2="147.25"/><line class="cls-2" x1="391.61" y1="146.4" x2="391.73" y2="147.25"/><line class="cls-2" x1="391.61" y1="146.4" x2="391.73" y2="147.25"/><line class="cls-2" x1="391.61" y1="146.4" x2="391.73" y2="147.25"/><line class="cls-2" x1="391.61" y1="146.4" x2="391.73" y2="147.25"/><line class="cls-2" x1="391.61" y1="146.4" x2="391.73" y2="147.25"/><line class="cls-2" x1="391.61" y1="146.4" x2="391.73" y2="147.25"/><line class="cls-2" x1="391.61" y1="146.4" x2="391.73" y2="147.25"/><line class="cls-2" x1="391.61" y1="146.4" x2="391.73" y2="147.25"/><line class="cls-2" x1="391.61" y1="146.4" x2="391.73" y2="147.25"/><line class="cls-2" x1="391.61" y1="146.4" x2="391.73" y2="147.25"/><line class="cls-2" x1="391.61" y1="146.4" x2="391.73" y2="147.25"/><line class="cls-2" x1="391.61" y1="146.4" x2="391.73" y2="147.25"/><line class="cls-2" x1="391.61" y1="146.4" x2="391.73" y2="147.25"/><line class="cls-2" x1="391.61" y1="146.4" x2="391.73" y2="147.25"/><line class="cls-2" x1="391.61" y1="146.4" x2="391.73" y2="147.25"/><line class="cls-2" x1="391.61" y1="146.4" x2="391.73" y2="147.25"/><line class="cls-2" x1="391.61" y1="146.4" x2="391.73" y2="147.25"/><line class="cls-2" x1="391.61" y1="146.4" x2="391.73" y2="147.25"/><line class="cls-2" x1="391.61" y1="146.4" x2="391.73" y2="147.25"/><line class="cls-2" x1="391.61" y1="146.4" x2="391.73" y2="147.25"/><line class="cls-2" x1="391.61" y1="146.4" x2="391.73" y2="147.25"/><line class="cls-2" x1="391.61" y1="146.4" x2="391.73" y2="147.25"/><line class="cls-2" x1="391.61" y1="146.4" x2="391.73" y2="147.25"/><line class="cls-2" x1="391.61" y1="146.4" x2="391.73" y2="147.25"/><line class="cls-2" x1="391.61" y1="146.4" x2="391.73" y2="147.25"/><line class="cls-2" x1="391.61" y1="146.4" x2="391.73" y2="147.25"/><line class="cls-2" x1="391.61" y1="146.4" x2="391.73" y2="147.25"/><line class="cls-2" x1="391.61" y1="146.4" x2="391.73" y2="147.25"/><line class="cls-2" x1="391.61" y1="146.4" x2="391.73" y2="147.25"/><line class="cls-2" x1="391.61" y1="146.4" x2="391.73" y2="147.25"/><line class="cls-2" x1="391.61" y1="146.4" x2="391.73" y2="147.25"/><line class="cls-2" x1="391.61" y1="146.4" x2="391.73" y2="147.25"/><line class="cls-2" x1="391.61" y1="146.4" x2="391.73" y2="147.25"/><line class="cls-2" x1="391.61" y1="146.4" x2="391.73" y2="147.25"/><line class="cls-2" x1="391.61" y1="146.4" x2="391.73" y2="147.25"/><line class="cls-2" x1="391.61" y1="146.4" x2="391.73" y2="147.25"/><line class="cls-2" x1="391.61" y1="146.4" x2="391.73" y2="147.25"/><line class="cls-2" x1="391.61" y1="146.4" x2="391.73" y2="147.25"/><line class="cls-2" x1="391.61" y1="146.4" x2="391.73" y2="147.25"/><line class="cls-2" x1="391.61" y1="146.4" x2="391.73" y2="147.25"/><line class="cls-2" x1="391.61" y1="146.4" x2="391.73" y2="147.25"/><line class="cls-2" x1="391.61" y1="146.4" x2="391.73" y2="147.25"/><path class="cls-3" d="M289.09,279.84l-16.31,2.38L254.57,157.56l16.31-2.38Zm1.39-148.74,3,20.78-22.63,3.3-3-20.77Zm21.24,145.44,3,20.77-22.63,3.31-3-20.78Zm-8-168.6,3,20.78-16.31,2.38-3-20.78Zm27.31,187,3,20.78-16.3,2.38-3-20.78Zm-1.64-169.52,3,20.78-22.63,3.31-3-20.78Zm21.24,145.44,3,20.78-22.63,3.3-3-20.77Zm4.17-85.49-16.31,2.38-6.07-41.55,16.31-2.38Zm14,82.83-18.2,2.66-6.07-41.55,18.2-2.66Z"/><path class="cls-4" d="M280.9,280.76l-16.31,2.38-18.2-124.66,16.31-2.38ZM282.29,132l3,20.78L262.7,156.1l-3-20.78Zm21.24,145.44,3,20.78-22.63,3.3-3-20.77Zm-8-168.59,3,20.77L282.29,132l-3-20.77Zm27.3,187,3,20.77L309.6,319l-3-20.77Zm-1.64-169.52,3,20.77-22.63,3.31-3-20.78Zm21.24,145.43,3,20.78-22.63,3.31-3-20.78Zm4.17-85.48-16.31,2.38-6.07-41.56,16.31-2.38Zm14,82.83-18.21,2.65-6.07-41.55,18.21-2.66Z"/><polygon class="cls-5" points="944.17 160.94 934.57 162.34 935.99 172.07 945.59 170.67 955.18 169.27 953.76 159.53 952.34 149.8 942.75 151.2 944.17 160.94"/><polygon class="cls-5" points="916.8 174.87 918.23 184.61 908.63 186.01 910.05 195.74 900.46 197.14 901.88 206.87 911.47 205.47 921.07 204.07 919.65 194.34 929.24 192.94 927.82 183.21 937.42 181.8 935.99 172.07 926.4 173.47 916.8 174.87"/><polygon class="cls-5" points="882.85 210.79 873.26 212.19 871.84 202.46 870.41 192.73 868.99 182.99 878.59 181.59 877.17 171.86 875.75 162.13 885.34 160.73 883.92 151 893.51 149.59 892.09 139.86 901.69 138.46 900.27 128.73 909.86 127.33 908.44 117.59 907.02 107.86 916.61 106.46 915.19 96.73 905.6 98.13 896 99.53 897.42 109.26 887.83 110.66 889.25 120.4 879.65 121.8 881.08 131.53 871.48 132.93 872.9 142.66 863.31 144.07 864.73 153.8 866.15 163.53 856.56 164.93 857.98 174.66 848.38 176.06 849.81 185.8 851.23 195.53 841.63 196.93 843.05 206.66 833.46 208.06 834.88 217.79 825.28 219.2 815.69 220.6 817.11 230.33 807.52 231.73 806.1 222 804.67 212.27 803.25 202.54 801.83 192.8 811.42 191.4 810 181.67 819.6 180.27 818.17 170.53 816.75 160.8 826.35 159.4 824.93 149.67 834.52 148.27 844.12 146.87 842.7 137.13 841.28 127.4 850.87 126 860.46 124.6 859.04 114.87 868.64 113.47 878.23 112.06 887.83 110.66 886.4 100.93 876.81 102.33 867.22 103.73 857.62 105.14 848.03 106.54 849.45 116.27 839.86 117.67 830.26 119.07 831.68 128.81 822.09 130.21 823.51 139.94 813.91 141.34 804.32 142.74 805.74 152.47 796.15 153.88 797.57 163.61 798.99 173.34 789.39 174.74 790.81 184.47 781.22 185.87 782.64 195.6 784.06 205.34 785.48 215.07 786.9 224.8 788.33 234.54 789.75 244.27 799.34 242.87 808.94 241.46 818.53 240.06 828.12 238.66 826.7 228.93 836.3 227.53 845.89 226.13 855.49 224.73 856.91 234.46 866.51 233.06 876.1 231.66 885.7 230.25 884.27 220.52 893.87 219.12 903.46 217.72 902.04 207.99 892.45 209.39 882.85 210.79"/><path class="cls-3" d="M734.82,52.75,733,40.42l-12.15,1.77L708.71,44l-12.15,1.77L684.4,47.52l-12.16,1.77-12.16,1.78,1.8,12.33,1.81,12.34,1.8,12.33,1.8,12.33,1.8,12.32,1.8,12.33-12.16,1.78,1.8,12.34,1.8,12.33,1.81,12.32,1.8,12.33-12.16,1.78,1.8,12.33,1.8,12.33,1.8,12.34,12.16-1.78-1.8-12.34-1.8-12.33,12.15-1.77-1.8-12.33-1.8-12.33-1.8-12.33,12.16-1.78,12.16-1.77L711,144.39l1.8,12.33L724.92,155l1.8,12.33,12.16-1.78,1.8,12.33,1.8,12.33,12.15-1.77L766,266.28l12.16-1.77-11.38-77.9L765,174.28l-12.16,1.78L751,163.73l-1.8-12.33-12.16,1.77-1.8-12.33,12.16-1.77,12.16-1.78L757.79,125,770,123.19l-1.81-12.34-1.8-12.33-1.8-12.33-1.8-12.33-1.8-12.33-1.8-12.33L747,51Zm15.77,22.89L752.39,88l1.8,12.33,1.8,12.33-12.16,1.77,1.8,12.34-12.16,1.77-12.15,1.78-12.16,1.77L697,133.84l-12.16,1.77-1.8-12.33L681.25,111l-1.8-12.33-1.8-12.33L675.85,74l-1.8-12.34,12.15-1.77,12.16-1.78,12.15-1.77,12.16-1.78,1.8,12.34,12.15-1.78,12.17-1.77Z"/><path class="cls-3" d="M722.41,54.56l-1.8-12.33L708.46,44,696.3,45.78l-12.15,1.78L672,49.33l-12.15,1.78-12.17,1.77,1.8,12.33,1.81,12.34,1.8,12.33,1.8,12.33,1.8,12.33,1.8,12.33-12.16,1.77,1.8,12.34,1.81,12.33,1.8,12.33,1.8,12.33-12.16,1.77,1.8,12.33L645,204.4l1.8,12.34L658.93,215l-1.8-12.33-1.8-12.33,12.15-1.78-1.8-12.33-1.8-12.33-1.8-12.33,12.16-1.77L686.4,148l12.15-1.77,1.8,12.33,12.16-1.78,1.8,12.33,12.16-1.78,1.8,12.33,1.8,12.33,12.15-1.77,11.38,77.9,12.16-1.78-11.38-77.9-1.8-12.33-12.16,1.78-1.8-12.33-1.8-12.33L724.67,155l-1.81-12.32L735,140.88l12.16-1.78-1.8-12.33L757.54,125l-1.81-12.34-1.8-12.33L752.13,88l-1.8-12.33-1.8-12.33L746.73,51l-12.15,1.77Zm15.77,22.89L740,89.78l1.8,12.33,1.8,12.33-12.16,1.77,1.8,12.34-12.16,1.78-12.15,1.77-12.16,1.78-12.15,1.77-12.16,1.78-1.8-12.34-1.8-12.33L667,100.43l-1.8-12.33-1.8-12.33-1.8-12.33,12.15-1.78L686,59.89l12.15-1.78,12.16-1.78,1.8,12.34,12.15-1.77,12.17-1.78Z"/><polygon class="cls-1" points="641.57 83.76 630.93 85.31 620.29 86.86 609.64 88.42 599 89.97 588.35 91.53 519 56.54 579.29 103.87 580.87 114.68 582.44 125.47 584.02 136.26 573.38 137.81 574.96 148.62 576.53 159.41 578.11 170.21 579.69 181 581.26 191.79 582.84 202.6 584.42 213.39 585.99 224.19 575.34 225.75 576.92 236.54 578.5 247.33 549.56 303.66 585.22 257.38 601.36 255.02 612 253.47 628.15 251.11 664.82 286.62 631.71 239.56 642.36 238 653 236.45 663.64 234.89 662.07 224.1 651.43 225.66 640.79 227.21 630.14 228.76 619.5 230.32 621.08 241.11 610.42 242.67 599.78 244.22 589.15 245.77 587.57 234.98 598.21 233.43 596.63 222.64 595.06 211.83 593.48 201.04 591.9 190.24 590.33 179.45 600.97 177.9 611.62 176.34 622.25 174.78 632.9 173.23 643.54 171.68 652.03 170.44 650.46 159.65 641.97 160.88 631.33 162.44 620.68 163.99 610.04 165.55 599.39 167.1 588.75 168.66 587.17 157.85 585.6 147.06 596.24 145.51 594.66 134.71 593.08 123.92 591.51 113.12 589.93 102.32 600.58 100.77 611.22 99.21 621.87 97.66 632.51 96.1 643.14 94.55 653.79 92.99 664.89 91.37 690.37 47.05 652.22 82.2 641.57 83.76"/><polygon class="cls-5" points="586.16 2.69 587.74 13.51 577.06 15.07 578.64 25.89 567.97 27.45 569.55 38.28 558.88 39.84 560.47 50.66 549.79 52.22 551.37 63.06 540.7 64.61 542.28 75.44 531.61 76.99 520.93 78.55 510.26 80.11 511.84 90.93 522.51 89.38 533.19 87.81 534.77 98.65 524.09 100.21 525.67 111.03 527.26 121.86 516.59 123.42 518.17 134.24 507.49 135.8 509.07 146.62 498.4 148.18 499.98 159.01 501.56 169.83 490.89 171.39 492.48 182.22 494.06 193.05 483.38 194.6 484.96 205.43 486.54 216.26 488.12 227.08 498.8 225.52 500.38 236.35 511.05 234.79 521.72 233.24 532.4 231.68 530.82 220.84 541.49 219.29 539.9 208.47 550.58 206.91 561.25 205.35 559.67 194.51 570.34 192.96 568.76 182.14 579.44 180.58 577.86 169.75 567.18 171.31 556.51 172.87 558.09 183.69 547.42 185.25 549 196.07 538.32 197.63 527.65 199.19 529.24 210.02 518.56 211.58 516.98 200.75 515.39 189.93 526.07 188.37 524.49 177.55 522.91 166.72 533.58 165.16 532 154.34 542.68 152.78 541.1 141.94 539.52 131.12 550.18 129.56 548.61 118.74 559.27 117.19 557.69 106.35 556.11 95.53 566.79 93.97 565.21 83.14 575.88 81.58 586.54 80.02 597.23 78.46 595.64 67.64 584.97 69.2 574.3 70.76 572.72 59.94 583.38 58.38 581.8 47.55 592.48 45.99 590.9 35.17 589.32 24.34 599.99 22.78 598.41 11.96 596.83 1.13 586.16 2.69"/><polygon class="cls-5" points="458.54 85.61 446.96 87.3 435.39 88.99 423.8 90.68 412.23 92.37 400.65 94.06 389.07 95.75 390.69 106.85 392.31 117.95 393.94 129.05 395.56 140.15 383.98 141.84 385.61 152.95 387.23 164.04 388.85 175.15 390.47 186.25 392.09 197.34 393.71 208.45 395.33 219.55 396.95 230.66 385.37 232.35 386.99 243.44 388.61 254.54 390.23 265.65 401.82 263.96 413.39 262.27 424.96 260.58 436.55 258.89 448.12 257.19 446.5 246.09 458.09 244.4 469.66 242.71 481.23 241.01 479.61 229.92 468.04 231.61 456.46 233.3 444.88 234.99 433.31 236.68 434.93 247.78 423.34 249.47 411.77 251.16 400.2 252.85 398.57 241.75 410.15 240.06 408.53 228.97 406.91 217.86 405.29 206.76 403.66 195.65 402.04 184.56 413.62 182.87 425.2 181.18 436.77 179.49 448.36 177.79 459.93 176.1 471.51 174.41 469.88 163.32 458.31 165.01 446.74 166.7 435.15 168.39 423.58 170.08 412 171.77 400.42 173.46 398.8 162.35 397.18 151.26 408.75 149.57 407.13 138.46 405.51 127.36 403.89 116.27 402.27 105.16 413.85 103.47 425.43 101.78 437.01 100.08 448.58 98.39 460.16 96.7 471.74 95.01 483.31 93.32 481.69 82.22 470.12 83.91 458.54 85.61"/><polygon class="cls-1" points="447.94 87.15 436.37 88.84 424.8 90.53 413.21 92.22 401.64 93.92 390.05 95.61 378.48 97.3 380.1 108.39 381.72 119.5 383.34 130.6 384.96 141.7 373.39 143.39 375.01 154.49 376.63 165.59 378.25 176.7 379.88 187.79 381.5 198.89 383.12 210 384.74 221.1 386.36 232.2 374.77 233.9 376.4 244.99 378.02 256.09 379.64 267.2 391.22 265.5 402.8 263.81 414.37 262.13 425.96 260.43 437.53 258.74 435.91 247.63 447.49 245.94 459.06 244.25 470.64 242.56 469.02 231.47 457.44 233.16 445.87 234.85 434.29 236.54 422.71 238.23 424.33 249.32 412.75 251.02 401.18 252.71 389.6 254.4 387.98 243.3 399.55 241.61 397.93 230.51 396.31 219.41 394.69 208.31 393.07 197.2 391.45 186.1 403.02 184.41 414.61 182.72 426.18 181.03 437.76 179.34 449.34 177.65 460.91 175.96 459.29 164.86 447.72 166.55 436.14 168.24 424.56 169.94 412.99 171.63 401.4 173.32 389.83 175.01 388.2 163.9 386.58 152.8 398.16 151.11 396.54 140 394.92 128.91 393.29 117.81 391.67 106.7 403.26 105.01 414.83 103.32 426.42 101.63 437.99 99.94 449.56 98.25 461.15 96.56 472.72 94.87 471.1 83.77 459.53 85.46 447.94 87.15"/><polygon class="cls-3" points="97.1 164.52 85 166.29 72.9 168.05 60.78 169.82 48.68 171.59 36.56 173.36 24.46 175.13 26.16 186.73 27.85 198.35 29.55 209.95 31.24 221.56 19.14 223.32 20.84 234.94 22.53 246.54 24.23 258.16 25.92 269.77 27.62 281.37 29.31 292.99 31.01 304.59 32.7 316.21 20.59 317.98 22.28 329.58 23.98 341.19 25.68 352.8 37.79 351.03 49.89 349.26 62 347.5 74.11 345.73 86.21 343.96 84.52 332.34 96.63 330.57 108.74 328.81 120.84 327.04 119.14 315.44 107.04 317.2 94.94 318.97 82.82 320.74 70.72 322.51 72.42 334.11 60.3 335.88 48.2 337.65 36.09 339.42 34.4 327.81 46.5 326.04 44.81 314.44 43.11 302.82 41.42 291.22 39.72 279.6 38.02 268 50.13 266.23 62.24 264.46 74.35 262.69 86.46 260.93 98.56 259.16 110.67 257.39 108.97 245.78 96.87 247.55 84.77 249.32 72.65 251.09 60.55 252.86 48.43 254.63 36.33 256.39 34.63 244.78 32.94 233.17 45.04 231.41 43.34 219.79 41.65 208.19 39.96 196.58 38.26 184.97 50.37 183.19 62.48 181.43 74.59 179.66 86.69 177.89 98.8 176.12 110.91 174.35 123.02 172.59 121.32 160.98 109.22 162.75 97.1 164.52"/><polygon class="cls-4" points="86.02 166.14 73.92 167.9 61.82 169.67 49.7 171.44 37.6 173.21 25.48 174.98 13.38 176.75 15.08 188.35 16.77 199.97 18.47 211.57 20.16 223.18 8.06 224.94 9.76 236.56 11.45 248.16 13.15 259.78 14.84 271.38 16.54 282.99 18.23 294.61 19.93 306.21 21.63 317.82 9.51 319.6 11.21 331.2 12.9 342.8 14.6 354.42 26.71 352.65 38.81 350.88 50.92 349.12 63.03 347.35 75.14 345.58 73.44 333.96 85.55 332.19 97.66 330.43 109.76 328.66 108.06 317.05 95.96 318.82 83.86 320.59 71.74 322.36 59.64 324.13 61.34 335.73 49.22 337.5 37.12 339.27 25.02 341.03 23.32 329.43 35.42 327.66 33.73 316.06 32.03 304.44 30.34 292.84 28.64 281.22 26.95 269.62 39.05 267.85 51.16 266.08 63.27 264.31 75.38 262.54 87.48 260.77 99.59 259.01 97.89 247.4 85.79 249.17 73.69 250.94 61.57 252.71 49.47 254.47 37.35 256.25 25.25 258.01 23.55 246.4 21.86 234.79 33.96 233.02 32.27 221.41 30.57 209.8 28.88 198.2 27.18 186.58 39.3 184.81 51.4 183.05 63.51 181.28 75.62 179.51 87.72 177.74 99.83 175.97 111.94 174.2 110.24 162.6 98.14 164.37 86.02 166.14"/><polygon class="cls-1" points="202.25 126.41 191.6 127.97 180.95 129.52 170.29 131.08 159.64 132.63 148.99 134.19 138.32 135.75 127.67 137.3 117.01 138.86 106.36 140.41 95.71 141.97 97.31 152.91 107.96 151.35 118.61 149.8 129.27 148.24 139.92 146.69 150.58 145.13 152.18 156.07 141.52 157.62 143.12 168.57 144.72 179.51 146.32 190.46 135.67 192.02 137.26 202.96 138.86 213.9 140.46 224.85 142.06 235.78 143.66 246.74 145.25 257.67 146.85 268.61 155.48 327.69 144.82 329.25 146.53 340.98 157.19 339.42 167.84 337.87 166.13 326.14 157.5 267.06 155.91 256.12 154.31 245.18 152.71 234.23 151.11 223.29 149.51 212.34 147.91 201.4 158.57 199.84 156.98 188.91 155.38 177.96 153.78 167.02 164.43 165.46 162.83 154.51 161.23 143.57 171.88 142.02 182.55 140.46 193.2 138.9 203.85 137.35 214.51 135.79 212.91 124.85 202.25 126.41"/><polygon class="cls-5" points="193.74 127.65 183.09 129.21 172.44 130.76 161.78 132.32 151.13 133.88 140.48 135.43 129.82 136.99 119.17 138.54 108.51 140.1 97.86 141.66 69.35 145.82 70.94 156.76 99.45 152.59 110.1 151.04 120.77 149.48 131.42 147.93 142.08 146.37 143.67 157.31 133.01 158.87 134.61 169.82 136.21 180.75 137.81 191.71 127.16 193.26 128.76 204.2 130.35 215.14 131.95 226.09 133.55 237.03 135.15 247.98 136.75 258.92 138.34 269.86 146.97 328.93 136.31 330.49 138.03 342.22 148.69 340.67 159.34 339.11 157.62 327.38 149 268.3 147.4 257.36 145.8 246.42 144.2 235.47 142.6 224.53 141 213.58 139.41 202.64 150.07 201.09 148.47 190.15 146.87 179.2 145.27 168.26 155.92 166.7 154.32 155.75 152.73 144.81 163.38 143.26 174.04 141.7 184.69 140.15 195.34 138.59 206 137.03 204.4 126.09 193.74 127.65"/></g></g></svg>