<?xml version="1.0" encoding="UTF-8" standalone="no"?>
<svg
   xmlns:dc="http://purl.org/dc/elements/1.1/"
   xmlns:cc="http://creativecommons.org/ns#"
   xmlns:rdf="http://www.w3.org/1999/02/22-rdf-syntax-ns#"
   xmlns:svg="http://www.w3.org/2000/svg"
   xmlns="http://www.w3.org/2000/svg"
   xmlns:sodipodi="http://sodipodi.sourceforge.net/DTD/sodipodi-0.dtd"
   xmlns:inkscape="http://www.inkscape.org/namespaces/inkscape"
   viewBox="0 0 186.1 295.87"
   version="1.1"
   id="svg12"
   sodipodi:docname="Umgang_m_Privilegien_blue.svg"
   inkscape:version="0.92.5 (2060ec1f9f, 2020-04-08)">
  <metadata
     id="metadata16">
    <rdf:RDF>
      <cc:Work
         rdf:about="">
        <dc:format>image/svg+xml</dc:format>
        <dc:type
           rdf:resource="http://purl.org/dc/dcmitype/StillImage" />
        <dc:title></dc:title>
      </cc:Work>
    </rdf:RDF>
  </metadata>
  <sodipodi:namedview
     pagecolor="#ffffff"
     bordercolor="#666666"
     borderopacity="1"
     objecttolerance="10"
     gridtolerance="10"
     guidetolerance="10"
     inkscape:pageopacity="0"
     inkscape:pageshadow="2"
     inkscape:window-width="1848"
     inkscape:window-height="1016"
     id="namedview14"
     showgrid="false"
     inkscape:zoom="1.1280441"
     inkscape:cx="35.321622"
     inkscape:cy="151.6776"
     inkscape:window-x="72"
     inkscape:window-y="27"
     inkscape:window-maximized="1"
     inkscape:current-layer="svg12" />
  <defs
     id="defs4">
    <style
       id="style2">.cls-1,.cls-2{stroke:#000;stroke-miterlimit:10;stroke-width:2px;}.cls-2{fill:#fff;}</style>
  </defs>
  <path
     class="cls-1"
     d="M 34.61,224.12 12.27,218.41 55.92,47.71 78.25,53.42 Z M 116.51,32.9 109.23,61.35 78.23,53.42 85.52,25 Z M 65.59,232 l -7.27,28.45 -31,-7.92 7.28,-28.45 z M 146.12,10.16 138.84,38.61 116.51,32.9 123.78,4.45 Z m -65.47,256 -7.27,28.45 -22.33,-5.71 7.27,-28.45 z M 169.83,46.53 162.55,75 l -31,-7.92 7.27,-28.45 z m -50.92,199.15 -7.27,28.45 -31,-7.93 7.28,-28.45 z M 170.34,137.59 148,131.88 162.55,75 l 22.34,5.71 z m -26.5,114.46 -24.93,-6.37 14.55,-56.9 24.93,6.37 z"
     id="path6"
     inkscape:connector-curvature="0"
     style="stroke:#0000ff;stroke-width:2px;stroke-miterlimit:10;stroke-opacity:1;fill:#0000ff;fill-opacity:1" />
  <path
     class="cls-2"
     d="M 23.55,220.89 1.22,215.18 44.86,44.48 67.19,50.19 Z m 81.9,-191.22 -7.27,28.45 -31,-7.93 7.27,-28.45 z m -50.91,199.15 -7.28,28.45 -31,-7.93 7.27,-28.45 z M 135.06,6.93 127.78,35.38 105.45,29.67 112.73,1.22 Z M 69.59,263 62.32,291.44 40,285.72 47.27,257.27 Z m 89.18,-219.7 -7.27,28.45 -31,-7.92 7.27,-28.45 z m -50.91,199.15 -7.28,28.45 -31,-7.92 7.28,-28.45 z m 51.42,-108.09 -22.28,-5.71 14.55,-56.9 22.33,5.71 z m -26.5,114.46 -24.92,-6.37 14.54,-56.9 24.93,6.37 z"
     id="path8"
     inkscape:connector-curvature="0"
     style="fill:#ffffff;stroke:#0000ff;stroke-width:2px;stroke-miterlimit:10;fill-opacity:1;stroke-opacity:1" />
</svg>
