<svg xmlns="http://www.w3.org/2000/svg" viewBox="0 0 186.1 295.87"><defs><style>.cls-1,.cls-2{stroke:#000;stroke-miterlimit:10;stroke-width:2px;}.cls-2{fill:#fff;}</style></defs><g id="Ebene_2" data-name="Ebene 2"><g id="Ebene_1-2" data-name="Ebene 1"><path class="cls-1" d="M34.61,224.12l-22.34-5.71L55.92,47.71l22.33,5.71ZM116.51,32.9l-7.28,28.45-31-7.93L85.52,25ZM65.59,232l-7.27,28.45-31-7.92,7.28-28.45ZM146.12,10.16l-7.28,28.45L116.51,32.9l7.27-28.45Zm-65.47,256-7.27,28.45-22.33-5.71,7.27-28.45ZM169.83,46.53,162.55,75l-31-7.92,7.27-28.45ZM118.91,245.68l-7.27,28.45-31-7.93,7.28-28.45Zm51.43-108.09L148,131.88,162.55,75l22.34,5.71Zm-26.5,114.46-24.93-6.37,14.55-56.9,24.93,6.37Z"/><path class="cls-2" d="M23.55,220.89,1.22,215.18,44.86,44.48l22.33,5.71Zm81.9-191.22L98.18,58.12l-31-7.93,7.27-28.45ZM54.54,228.82l-7.28,28.45-31-7.93,7.27-28.45ZM135.06,6.93l-7.28,28.45-22.33-5.71,7.28-28.45ZM69.59,263l-7.27,28.44L40,285.72l7.27-28.45ZM158.77,43.3,151.5,71.75l-31-7.92,7.27-28.45ZM107.86,242.45l-7.28,28.45-31-7.92,7.28-28.45Zm51.42-108.09L137,128.65l14.55-56.9,22.33,5.71Zm-26.5,114.46-24.92-6.37,14.54-56.9,24.93,6.37Z"/></g></g></svg>