<svg xmlns="http://www.w3.org/2000/svg" viewBox="0 0 244.78 339.01"><defs><style>.cls-1,.cls-2{stroke:#000;stroke-miterlimit:10;stroke-width:2px;}.cls-2{fill:#fff;}</style></defs><g id="Ebene_2" data-name="Ebene 2"><g id="Ebene_1-2" data-name="Ebene 1"><polygon class="cls-1" points="167.31 61.34 152.74 61.34 138.16 61.34 123.57 61.34 108.99 61.34 94.4 61.34 8.23 0.82 79.83 76.13 79.83 90.93 79.83 105.71 79.83 120.5 65.25 120.5 65.25 135.3 65.25 150.08 65.25 164.88 65.25 179.66 65.25 194.45 65.25 209.25 65.25 224.03 65.25 238.83 50.66 238.83 50.66 253.62 50.66 268.4 0.81 338.29 57.71 283.2 79.83 283.2 94.4 283.2 116.53 283.2 158.76 338.02 123.57 268.4 138.16 268.4 152.74 268.4 167.31 268.4 167.31 253.62 152.74 253.62 138.16 253.62 123.57 253.62 108.99 253.62 108.99 268.4 94.4 268.4 79.83 268.4 65.25 268.4 65.25 253.62 79.83 253.62 79.83 238.83 79.83 224.03 79.83 209.25 79.83 194.45 79.83 179.66 94.4 179.66 108.99 179.66 123.57 179.66 138.16 179.66 152.74 179.66 164.37 179.66 164.37 164.88 152.74 164.88 138.16 164.88 123.57 164.88 108.99 164.88 94.4 164.88 79.83 164.88 79.83 150.08 79.83 135.3 94.4 135.3 94.4 120.5 94.4 105.71 94.4 90.93 94.4 76.13 108.99 76.13 123.57 76.13 138.16 76.13 152.74 76.13 167.31 76.13 181.9 76.13 197.1 76.13 239.96 21.67 181.9 61.34 167.31 61.34"/><polygon class="cls-2" points="79.46 135.16 108.99 135.26 108.99 76.13 94.4 76.13 94.18 164.88 79.83 164.88 79.46 135.16"/><polygon class="cls-2" points="79.84 254.32 93.1 254.32 93.1 179.66 79.83 179.66 79.84 254.32 79.84 268.65 65.25 268.4 65.25 253.62 79.84 254.32"/><polyline class="cls-2" points="163.44 179.66 179.21 179.66 179.21 164.88 163.44 164.88"/><polygon class="cls-2" points="123.57 268.4 158.76 338.02 137.64 268.75 123.57 268.4"/></g></g></svg>